<?xml version="1.0" encoding="UTF-8" standalone="no"?>
<svg
   version="1.1"
   id="svg1"
   sodipodi:docname="logoNEW2.svg"
   inkscape:version="1.3.2 (091e20e, 2023-11-25, custom)"
   viewBox="9.61 184.98 813.01415 280.66107"
   width="813.01416"
   height="280.66107"
   xmlns:inkscape="http://www.inkscape.org/namespaces/inkscape"
   xmlns:sodipodi="http://sodipodi.sourceforge.net/DTD/sodipodi-0.dtd"
   xmlns="http://www.w3.org/2000/svg"
   xmlns:svg="http://www.w3.org/2000/svg">
  <sodipodi:namedview
     id="namedview1"
     pagecolor="#ffffff"
     bordercolor="#000000"
     borderopacity="0.25"
     inkscape:showpageshadow="2"
     inkscape:pageopacity="0.0"
     inkscape:pagecheckerboard="0"
     inkscape:deskcolor="#d1d1d1"
     inkscape:zoom="1.0270049"
     inkscape:cx="470.78646"
     inkscape:cy="182.56972"
     inkscape:window-width="1920"
     inkscape:window-height="1017"
     inkscape:window-x="-8"
     inkscape:window-y="-8"
     inkscape:window-maximized="1"
     inkscape:current-layer="svg1" />
  <defs
     id="defs1" />
  <path
     style="fill:#1a1a1a;fill-opacity:1;stroke:#ffffff;strokeWidth:5;stroke-dasharray:none;stroke-opacity:1;strokeLinejoin:bevel"
     d="m 124.88433,394.87723 1.79709,-1.62297 c 12.191,-12.00402 6.92723,-7.32845 11.20291,-10.93797 10.17198,-8.58722 20.95818,-18.2737 32.00001,-27.43906 l 4.11195,-3.73028 c 9.42346,-9.00439 10.30103,-9.90757 15.88419,-15.23423 12.12826,-11.57107 25.17551,-23.0036 38.00462,-33.78934 4.92859,-4.14358 14.40061,-16.95037 21.94446,-13.68441 9.28914,4.02151 5.05478,28.14242 5.05478,36.43826 v 76 c 0,8.82495 -2.87694,23.67828 0.60339,31.81097 1.61162,3.76596 5.83113,4.12317 9.39661,4.18439 8.69472,0.14929 29.28149,3.73126 36.60571,-1.02313 6.43894,-4.17975 3.39429,-21.34482 3.39429,-27.97223 v -85 c 0,-7.85306 -3.98886,-31.39011 6.01852,-34.33798 8.14801,-2.40015 20.5055,14.08584 26.02085,18.67364 19.23788,16.00251 38.06518,32.83591 56.57559,49.66819 5.04587,4.5884 15.3056,17.5823 22.38889,18.11422 5.58978,0.41977 13.04354,-9.21371 16.82638,-12.65432 14.23981,-12.95157 29.02863,-25.32309 43.15512,-38.38813 8.83331,-8.16958 18.05957,-15.88324 27.01465,-23.90585 3.40366,-3.04926 4.5493,-4.80441 10.06912,-9.68292 9.25788,-4.49637 8.10252,-4.21625 12.33136,-0.14273 6.24822,6.01872 2.59952,22.52755 2.59952,30.65588 v 81 c 0,7.85992 -4.75424,32.07526 5.04321,34.6821 6.2724,1.66891 14.48322,0.3179 20.95679,0.3179 h 43 139 52.00001 c 6.18573,0 16.98261,0.92082 22.70386,-1.5771 6.28918,-2.74591 4.88813,-15.42464 4.7304,-21.17947 -0.21134,-7.71132 0.37684,-20.96825 -2.65264,-27.15392 -2.71881,-5.55133 -10.20032,-10.09863 -14.77777,-14.08951 -4.05109,-3.53198 -4.00574,-3.59323 -11.54076,-10.11883 -6.12916,-5.82919 -6.09945,-5.86463 -9.4631,-8.97068 -7.0614,-6.52066 -14.63159,-12.4057 -21.71448,-18.91049 -6.36072,-5.84158 -10.32977,-10.44061 -3.40436,-17.69986 3.16633,-3.31894 6.6128,-6.32809 10.09412,-9.30399 4.02124,-3.4374 7.39593,-6.0134 12.20729,-10.483 l 3.07739,-3.06086 c 15.61408,-15.53341 18.46045,-16.81435 26.74005,-23.87978 3.14148,-2.68076 7.52649,-5.69507 9.10266,-9.66202 2.43793,-6.13583 -0.10266,-17.19113 -0.10266,-23.91048 0,-5.91473 3.06885,-20.26395 -2.5332,-23.97223 -3.33924,-2.21042 -9.64441,-1.02777 -13.4668,-1.02777 h -34.00001 -110 c -9.6579,0 -19.34521,0.22131 -29,-0.0146 -4.83649,-0.11819 -10.19244,-1.68371 -14.76855,0.71759 -3.8603,2.0257 -4.26803,7.23261 -4.31607,10.93192 -0.0998,7.68109 -2.97532,34.38924 6.12857,37.06191 8.70471,2.55543 19.00085,1.30317 27.95605,1.30317 19.74109,0 40.47174,-1.5896 60,0.71451 6.78448,0.80047 19.21112,-2.47257 24.77081,1.94754 8.33411,6.62582 -9.14184,17.4917 -13.78546,21.33795 -4.39111,3.63708 -8.97058,10.15829 -14.15509,12.41125 -15.65356,6.80234 -39.54849,3.19347 -55.68225,3.92759 v 45.17431 c 18.25924,0.76755 34.39508,-0.18741 50.85199,1.66123 11.12836,1.25009 24.47644,16.022 31.89429,23.86499 3.93023,4.15548 5.75293,9.38391 -0.002,13.02313 -7.6888,4.86166 -23.10616,1.9375 -31.89229,1.9375 h -78 c -8.36206,0 -25.01665,1.58298 -31.72307,-4.26801 -6.92407,-6.04092 -4.27693,-24.36865 -4.27693,-32.73199 v -98 c 0,-9.64667 -0.33264,-19.36052 0.0386,-28.99999 0.17408,-4.52023 1.0492,-9.16293 -4.08252,-11.25772 -6.0494,-2.46936 -15.49789,-0.74228 -21.95608,-0.74228 -7.73761,0 -17.68643,-2.22946 -25,0.93826 -8.33118,3.60846 -15.01822,12.83023 -21.96063,18.5517 -19.9076,16.40639 -38.63687,34.40853 -57.95911,51.51003 -7.06442,6.2525 -19.63623,22.90387 -29.09491,24.45755 -7.00183,1.15012 -15.37369,-10.11487 -19.97146,-14.28781 -16.64673,-15.10852 -35.30626,-29.55762 -51.55333,-46.34404 l -2.39144,-2.6514 c -19.0535,-15.96859 -19.0712,-15.87339 -27.08377,-23.12491 -3.40463,-3.08124 -7.39492,-7.588 -11.98535,-8.73148 -8.42422,-2.09848 -21.79482,-5.79499 -25.32231,-5.79499 -6.56161,0 -19.94653,2.95292 -25.67769,6.33589 -12.74225,7.52148 -22.94995,19.65598 -34.14801,29.39898 -31.50909,27.41492 -62.60498,57.65948 -94.27715,84.8973 -8.31852,7.15387 -16.54145,14.46399 -24.585631,21.92361 -3.877146,3.5954 -6.333496,7.07622 -11.202859,9.27541 -4.78792,2.16241 -10.110019,-0.29109 -11.251299,-4.84096 -2.2317,-8.897 -0.53504,-21.18628 -0.53504,-30.51315 0,-22.47345 -1.732,-45.64124 -0.62499,-68 0.52677,-10.63947 3.701889,-27.82122 -0.11728,-37.95601 -1.34985,-3.58202 -1.62931,-2.90016 -8.25772,-5 -7.797133,-1.05942 -25.330493,-1.37923 -38.370983,1.20548 -8.881889,1.76045 -5.736099,22.01279 -5.724449,29.87224 l 0.12171,82.12172 0.36514,78.75657 c 0.0362,7.81727 -2.06386,23.5347 3.184959,29.85187 4.74042,5.70526 17.37814,4.36526 24.05847,4.36526 7.29246,0 18.587843,0.80344 25.350483,-2.15463 5.973839,-2.61304 10.798309,-9.05408 15.590276,-13.31714 10.546753,-9.38269 21.157443,-19.24972 32.424363,-27.74536 z"
     id="path167"
     sodipodi:nodetypes="ccsccssssssssssssssssscsssssccssssscssssccssssscssssssssssccsscsssssssssssssccsssssssssssscsscsssssc" />
</svg>
