<?xml version="1.0" encoding="UTF-8" standalone="no"?>
<!-- Created with Inkscape (http://www.inkscape.org/) -->

<svg
   version="1.1"
   id="svg1"
   width="800"
   height="611"
   viewBox="0 0 800 611"
   sodipodi:docname="logoNEW2.svg"
   inkscape:version="1.3.2 (091e20e, 2023-11-25, custom)"
   xmlns:inkscape="http://www.inkscape.org/namespaces/inkscape"
   xmlns:sodipodi="http://sodipodi.sourceforge.net/DTD/sodipodi-0.dtd"
   xmlns="http://www.w3.org/2000/svg"
   xmlns:svg="http://www.w3.org/2000/svg">
  <sodipodi:namedview
     id="namedview1"
     pagecolor="#ffffff"
     bordercolor="#000000"
     borderopacity="0.25"
     inkscape:showpageshadow="2"
     inkscape:pageopacity="0.0"
     inkscape:pagecheckerboard="0"
     inkscape:deskcolor="#d1d1d1"
     inkscape:zoom="1.0270049"
     inkscape:cx="101.75219"
     inkscape:cy="499.0239"
     inkscape:window-width="2560"
     inkscape:window-height="1511"
     inkscape:window-x="-9"
     inkscape:window-y="-9"
     inkscape:window-maximized="1"
     inkscape:current-layer="svg1" />
  <defs
     id="defs1" />
  <path
     style="fill:#1e1a16;stroke:none"
     d="M 25.39324,196.94999 V 399.95 c 9.811492,0 24.862262,2.84067 34.000002,-0.85803 13.57232,-5.49369 27.16556,-23.2218 38,-32.97296 27.873048,-25.08615 55.808848,-50.15714 84.000008,-74.88428 12.42339,-10.89685 24.56578,-22.11688 37,-32.99844 6.77313,-5.92737 14.87305,-11.16327 24,-6.59803 11.1671,5.5857 12,16.31449 12,27.31174 v 59 62 h 26 v -124 c 0.005,-13.96051 8.10406,-30.48694 25,-25.19598 9.03116,2.82809 17.09845,12.8674 24,19.03009 16.65109,14.8684 33.13248,29.97107 50,44.59027 5.66513,4.91 16.28189,18.89926 24,19.54242 7.54913,0.62909 21.67239,-16.98175 27,-21.88114 16.39124,-15.07373 33.1489,-29.95303 50,-44.50927 6.56268,-5.66895 13.52264,-14.24353 21.99615,-16.93827 18.44132,-5.86471 24.00385,13.61063 24.00385,27.36188 v 122 h 263 c 0,-9.3945 3.58496,-28.30057 -2.31787,-35.98535 -12.07416,-15.71918 -31.87604,-28.62876 -46.68213,-41.84876 -7.18103,-6.41177 -16.80853,-12.54043 -16.98071,-23.16589 -0.18103,-11.17221 9.36371,-17.56772 16.98071,-24.28549 10.74933,-9.48029 21.27625,-19.24487 32,-28.76468 4.8877,-4.33896 11.71429,-8.6059 15.39661,-14.03934 5.10077,-7.5264 1.60339,-25.98124 1.60339,-34.9105 -40.44025,2.12027 -81.47961,1 -122,1 -19.52753,0 -42.99719,3.52426 -62,-1 V 223.95 h 79 c 10.12958,0 24.35803,-2.68283 32.98456,3.63812 16.28882,11.9354 4.80054,26.55771 -5.98071,36.43674 -7.15436,6.55563 -14.91791,15.91153 -24.00385,19.69675 -12.73914,5.30716 -34.2627,1.22839 -48,1.22839 v 27 c 13.8136,0 33.97815,-3.72656 47,0.96991 9.54724,3.44333 17.6908,13.22272 25,19.94443 8.25085,7.58767 18.12616,15.60327 12.77545,28.08566 -6.30084,14.69879 -22.78583,12 -35.77545,12 h -95 c -12.93707,0 -27.79352,2.9874 -36.36188,-9.00076 -7.99054,-11.17969 -3.63812,-33.77967 -3.63812,-46.99924 V 197.94999 c -9.18896,-0.53549 -26.53845,-3.07352 -35,0.34875 -8.23776,3.33176 -16.36633,13.67099 -23.00385,19.60187 -16.64935,14.87681 -33.1145,30.01417 -49.99615,44.62501 -10.26941,8.88803 -27.25381,31.52542 -42,30.94986 -13.93259,-0.54382 -27.27142,-18.65426 -37,-27.1011 -16.47379,-14.30338 -32.94238,-28.74311 -49,-43.51004 -8.061,-7.4131 -17.91309,-19.62333 -28,-23.97609 -8.81464,-3.80371 -32.5773,-2.93121 -42,-0.92514 -4.76007,1.0134 -8.53183,5.72412 -12,8.82099 -8.65158,7.72534 -17.5135,15.23429 -26,23.14121 -32.65892,30.42853 -67.14461,58.89581 -100.00001,89.11035 -10.220968,9.39942 -26.415608,30.55933 -41.999998,27.57407 -20.63985,-3.95364 -16,-32.64108 -16,-47.65973 v -40 -61.00001 z"
     id="path239" />
  <path
     style="fill:#d42a22;stroke:none"
     d="m 115.14729,390.98242 -1,-3 c 5.90832,0.088 9.72432,-5.95142 14,-9.56094 10.17198,-8.58722 20.2279,-21.31653 32.00001,-27.43906 l -1,-3 c 7.84119,-1.21475 15.41298,-10.63785 20.99614,-15.96451 12.12826,-11.57107 25.17551,-23.0036 38.00462,-33.78934 4.92859,-4.14358 14.40061,-16.95037 21.94446,-13.68441 9.28914,4.02151 5.05478,28.14242 5.05478,36.43826 v 76 c 0,8.82495 -2.87694,23.67828 0.60339,31.81097 1.61162,3.76596 5.83113,4.12317 9.39661,4.18439 8.69472,0.14929 29.28149,3.73126 36.60571,-1.02313 6.43894,-4.17975 3.39429,-21.34482 3.39429,-27.97223 v -85 c 0,-7.85306 -3.98886,-31.39011 6.01852,-34.33798 8.14801,-2.40015 20.5055,14.08584 26.02085,18.67364 19.23788,16.00251 38.06518,32.83591 56.57559,49.66819 5.04587,4.5884 15.3056,17.5823 22.38889,18.11422 5.58978,0.41977 13.04354,-9.21371 16.82638,-12.65432 14.23981,-12.95157 29.02863,-25.32309 43.15512,-38.38813 8.83331,-8.16958 18.05957,-15.88324 27.01465,-23.90585 3.40366,-3.04926 8.07898,-5.29126 8,-10.16977 5.11963,-0.72327 10.11078,-4.94653 14.40048,0.34412 5.46387,6.7388 2.59952,22.52755 2.59952,30.65588 v 81 c 0,7.85992 -4.75424,32.07526 5.04321,34.6821 6.2724,1.66891 14.48322,0.3179 20.95679,0.3179 h 43 139 52.00001 c 6.18573,0 16.13062,1.89453 21.85187,-0.60339 6.28918,-2.74591 3.15674,-17.05762 3.14813,-22.39661 -0.0113,-7.03012 2.8111,-20.72482 -0.21838,-26.91049 -2.71881,-5.55133 -10.20032,-10.09863 -14.77777,-14.08951 -4.05109,-3.53198 -7.49134,-8.19766 -13.00385,-9 -0.23376,-4.83945 -4.63636,-6.98346 -8.00001,-10.08951 -7.0614,-6.52066 -14.63159,-12.4057 -21.71448,-18.91049 -6.36072,-5.84158 -10.32977,-10.44061 -3.40436,-17.69986 3.16633,-3.31894 6.6128,-6.32809 10.09412,-9.30399 4.02124,-3.4374 7.51764,-7.16967 12.02472,-9.99615 l -1,-3 c 10.74555,-1.65811 22.72041,-17.36206 31.00001,-24.42749 3.14148,-2.68076 7.52649,-5.69507 9.10266,-9.66202 2.43793,-6.13583 -0.10266,-17.19113 -0.10266,-23.91048 0,-5.91473 3.06885,-20.26395 -2.5332,-23.97223 -3.33924,-2.21042 -9.64441,-1.02777 -13.4668,-1.02777 h -34.00001 -110 c -9.6579,0 -19.34521,0.22131 -29,-0.0146 -4.83649,-0.11819 -10.19244,-1.68371 -14.76855,0.71759 -3.8603,2.0257 -3.17261,7.59775 -3.22065,11.29706 -0.0998,7.68109 -4.07074,34.0241 5.03315,36.69677 8.70471,2.55543 19.00085,1.30317 27.95605,1.30317 19.74109,0 40.47174,-1.5896 60,0.71451 6.78448,0.80047 19.21112,-2.47257 24.77081,1.94754 8.33411,6.62582 -9.14184,17.4917 -13.78546,21.33795 -4.39111,3.63708 -8.97058,10.15829 -14.15509,12.41125 -15.65356,6.80234 -38.20965,-0.2145 -54.83026,2.58875 v 47 c 16.19012,3.56696 33.54309,-0.67426 50,1.17438 11.12836,1.25009 24.47644,16.022 31.89429,23.86499 3.93023,4.15548 5.75293,9.38391 -0.002,13.02313 -7.6888,4.86166 -23.10616,1.9375 -31.89229,1.9375 h -78 c -8.36206,0 -25.99036,3.28696 -32.69678,-2.56403 -6.92407,-6.04092 -3.30322,-26.07263 -3.30322,-34.43597 v -98 c 0,-9.64667 -0.33264,-19.36052 0.0386,-28.99999 0.17408,-4.52023 1.0492,-9.16293 -4.08252,-11.25772 -6.0494,-2.46936 -15.49789,-0.74228 -21.95608,-0.74228 -7.73761,0 -17.68643,-2.22946 -25,0.93826 -8.33118,3.60846 -15.01822,12.83023 -21.96063,18.5517 -19.9076,16.40639 -38.63687,34.40853 -57.95911,51.51003 -7.06442,6.2525 -19.63623,22.90387 -29.09491,24.45755 -7.00183,1.15012 -15.37369,-10.11487 -19.97146,-14.28781 -16.64673,-15.10852 -40.05307,-29.92276 -53.01389,-48.16974 l -3,1 c -4.2045,-10.24807 -17.00208,-17.69909 -25.01465,-24.95061 -3.40463,-3.08124 -7.39493,-7.58798 -11.98535,-8.73148 -8.42422,-2.09848 -19.32614,-0.3179 -28,-0.3179 -6.56161,0 -17.26884,-2.52417 -23,0.8588 -12.74225,7.52148 -23.80194,21.11654 -35,30.85954 -31.50909,27.41492 -61.75299,56.19892 -93.42516,83.43674 -8.31853,7.15387 -16.541456,14.46399 -24.585646,21.92361 -3.87714,3.5954 -8.15918,9.38877 -13.02855,11.58796 -4.78792,2.16241 -9.50146,-2.11679 -10.64274,-6.66666 -2.23171,-8.897 0.68209,-21.67313 0.68209,-31 0,-22.47345 -1.73201,-45.64124 -0.625,-68 0.52678,-10.63947 3.96988,-27.92629 -0.11728,-37.95601 -1.45141,-3.56171 -4.66923,-4.77512 -8.25772,-5 -9.13596,-0.57257 -31.17271,-3.69178 -38.73611,1.81405 -7.32045,5.32898 -4.26389,21.2825 -4.26389,29.14196 v 82 79 c 0,7.81735 -2.67243,23.5347 2.57639,29.85187 4.74042,5.70526 17.74328,3.14813 24.42361,3.14813 7.29246,0 18.22269,2.02057 24.98534,-0.9375 5.97384,-2.61304 10.79831,-9.05408 15.59028,-13.31714 10.54675,-9.38269 21.157436,-19.24972 32.424376,-27.74536 z"
     id="path167" />
</svg>
