<?xml version="1.0" encoding="UTF-8" standalone="no"?>
<svg
   version="1.0"
   width="847.12347pt"
   height="562.80157pt"
   viewBox="0 0 847.12345 562.80158"
   preserveAspectRatio="xMidYMid"
   id="svg2"
   sodipodi:docname="logotest3.svg"
   inkscape:version="1.3.2 (091e20e, 2023-11-25, custom)"
   xmlns:inkscape="http://www.inkscape.org/namespaces/inkscape"
   xmlns:sodipodi="http://sodipodi.sourceforge.net/DTD/sodipodi-0.dtd"
   xmlns="http://www.w3.org/2000/svg"
   xmlns:svg="http://www.w3.org/2000/svg">
  <defs
     id="defs2" />
  <sodipodi:namedview
     id="namedview2"
     pagecolor="#ffffff"
     bordercolor="#000000"
     borderopacity="0.25"
     inkscape:showpageshadow="2"
     inkscape:pageopacity="0.0"
     inkscape:pagecheckerboard="0"
     inkscape:deskcolor="#d1d1d1"
     inkscape:document-units="pt"
     showgrid="false"
     inkscape:zoom="1.0893032"
     inkscape:cx="429.63245"
     inkscape:cy="401.6329"
     inkscape:window-width="2560"
     inkscape:window-height="1506"
     inkscape:window-x="-11"
     inkscape:window-y="-11"
     inkscape:window-maximized="1"
     inkscape:current-layer="g2" />
  <g
     transform="matrix(0.09324759,0,0,-0.09277689,44.489866,613.84221)"
     fill="#000000"
     stroke="none"
     id="g2">
    <path
       d="m 156.28347,4997.3636 c -3.05181,-8.5591 -4.06907,-568.5717 -3.05181,-1244.7441 l 3.05181,-1228.8485 174.97019,-3.6682 174.97019,-2.4455 160.72843,172.4056 C 1833.7594,3948.2571 2138.9399,4274.7273 2180.6479,4310.1866 c 92.5715,80.7005 195.3156,59.914 266.5244,-52.5776 l 28.4835,-44.0184 5.0863,-844.9098 5.0864,-844.9098 139.3658,-3.6682 140.383,-3.6682 2.0346,848.578 3.0518,847.3552 25.4317,45.2412 c 29.5008,52.5776 109.865,106.3779 157.6766,106.3779 56.9671,0 119.0204,-51.3548 310.2669,-257.997 544.2387,-588.1355 738.537,-793.5549 748.7097,-791.1095 10.1727,3.6683 153.6075,155.2874 624.6029,665.1678 345.8713,372.9341 358.0785,383.9387 437.4255,383.9387 39.6734,-1.2227 104.7786,-41.5729 135.2967,-84.3687 49.8461,-72.1413 50.8634,-84.3687 46.7943,-948.8422 l -4.0691,-807.005 1345.8463,-3.6682 1344.8291,-2.4455 v 218.8696 c 0,173.6283 -3.0518,222.5377 -14.2418,229.8741 -16.2763,11.0046 -482.1853,504.9895 -568.6531,602.8083 -91.5542,102.7097 -114.9514,178.5193 -84.4333,275.1153 20.3454,62.3595 72.2261,123.4963 426.2355,501.3213 l 241.0927,256.7743 v 204.1968 205.4194 H 6997.4145 6051.3548 V 4846.9672 4681.898 l 491.3407,-1.2227 c 269.5761,-1.2228 514.7379,-3.6682 545.2559,-6.1137 96.6405,-8.5591 161.7457,-66.0277 184.1256,-161.401 28.4835,-124.719 6.1036,-169.9601 -183.1083,-370.4887 -84.4333,-90.4823 -165.8148,-172.4056 -181.0738,-182.1875 -21.3627,-14.6728 -78.3297,-19.5637 -269.5762,-22.0092 l -242.1099,-4.8909 3.0518,-166.292 3.0518,-167.5146 250.2481,-6.1137 251.2653,-6.1137 43.7426,-42.7957 c 94.6059,-89.2596 289.9215,-306.9064 306.1978,-338.6976 53.9152,-110.0461 16.2763,-259.2197 -77.3124,-310.5746 -39.6735,-22.0092 -81.3815,-23.232 -767.0205,-23.232 -593.0676,0 -730.3988,2.4455 -757.8651,17.1183 -39.6735,19.5638 -83.416,74.5868 -97.6578,121.0508 -7.1208,23.2319 -11.1899,226.2059 -11.1899,586.9127 0,304.461 -3.0518,747.091 -7.1209,984.3015 l -6.1036,430.4027 h -177.0047 -175.9875 l -526.9451,-564.9035 c -341.8022,-366.8204 -541.1869,-572.2399 -570.6877,-588.1354 -51.8807,-26.9002 -119.0204,-22.0093 -164.7975,13.45 -15.259,11.0046 -227.8681,235.9879 -473.0298,497.6531 -244.1445,262.888 -480.1508,513.5487 -522.8761,560.0126 l -79.3469,81.9232 h -215.661 -215.6609 l -79.3469,-81.9232 c -42.7253,-46.4639 -201.4192,-215.2014 -350.9577,-376.6024 -150.5557,-161.401 -317.3878,-339.9202 -371.303,-397.3888 -53.9152,-57.4685 -266.5244,-284.8972 -473.0299,-506.2122 -205.48827,-221.315 -390.63114,-415.7299 -410.97652,-431.6254 -31.53532,-25.6774 -45.77708,-29.3456 -103.76139,-25.6774 -54.9325,3.6682 -74.2606,11.0046 -104.77866,37.9047 -76.29514,70.9187 -72.22607,14.6729 -75.27787,947.6195 l -3.05181,833.9052 H 297.6838 c -99.69232,0 -138.34852,-3.6682 -141.40033,-14.6728 z"
       id="path2"
       style="fill:#ffffff;stroke-width:1.11813602;stroke-dasharray:none" />
  </g>
</svg>
